<svg id="eJtHqai0cFX1" xmlns="http://www.w3.org/2000/svg" xmlns:xlink="http://www.w3.org/1999/xlink" viewBox="0 0 204 100" shape-rendering="geometricPrecision" text-rendering="geometricPrecision"><defs><linearGradient id="eJtHqai0cFX2-fill" x1="101.166992" y1="-0.5" x2="101.166992" y2="499.5" spreadMethod="pad" gradientUnits="userSpaceOnUse" gradientTransform="translate(0 0)"><stop id="eJtHqai0cFX2-fill-0" offset="0%" stop-color="#000"/><stop id="eJtHqai0cFX2-fill-1" offset="100%" stop-color="rgba(0,23,26,0)"/></linearGradient><linearGradient id="eJtHqai0cFX3-stroke" x1="101.166992" y1="-0.5" x2="101.166992" y2="99.5" spreadMethod="pad" gradientUnits="userSpaceOnUse" gradientTransform="translate(0 0)"><stop id="eJtHqai0cFX3-stroke-0" offset="0%" stop-color="#00393d"/><stop id="eJtHqai0cFX3-stroke-1" offset="100%" stop-color="rgba(0,57,61,0)"/></linearGradient></defs><rect width="202.333" height="99" rx="19.5" ry="19.5" transform="translate(.833008 0.5)" fill="url(#eJtHqai0cFX2-fill)"/><rect width="202.333" height="99" rx="19.5" ry="19.5" transform="translate(.833008 0.5)" fill="none" stroke="url(#eJtHqai0cFX3-stroke)"/><g transform="translate(43.511509 18.000181)"><path d="M101.663,26.2902c0,0,1.276-.0603,2.712-.3214c1.159-.2099,2.205-.8058,2.205-.8058v3.8649c0,0,.874-3.6473,5.036-3.6473.901,0,4.793-.2176,4.793,5.1875c0,.2433,0,10.7087,0,11.9342c0,2.6383.567,3.5625.567,3.5625s-1.577-.1764-2.757-.1764-2.18.1764-2.18.1764.476-1.557.476-5.5313c0-2.0491,0-5.8638,0-7.365s.234-4.7901-2.496-4.7901c-3.606,0-3.369,4.5535-3.369,6.6696s0,6.6786,0,7.3929c0,2.5413.39,3.6239.39,3.6239s-1.173-.144-2.662-.144-2.122.144-2.122.144.541-.8125.541-5.2813c0-4.4699,0-7.615,0-9.3181c0-4.8783-1.134-5.1752-1.134-5.1752Z" clip-rule="evenodd" fill="#fff" fill-rule="evenodd"/><path d="M80.3302,16.7847l3.1418,3.1417-3.1418,3.1418-3.1417-3.1418l3.1417-3.1417Z" clip-rule="evenodd" fill="#fff" fill-rule="evenodd"/><path d="M82.4043,42.25c0-1.1998,0-12.6239,0-13.9665c0-1.3438.3248-3.1205.3248-3.1205s-.8393.4654-2.0313.7477c-1.1908.2835-3.2857.5045-3.2857.5045s1.1641.3817,1.1641,3.9732c0,1.9721,0,8.9609,0,10.2031c0,4.8025-.7032,5.4733-.7032,5.4733s1.5023-.1809,2.759-.1809s2.4676.1809,2.4676.1809-.6953-1.0224-.6953-3.8148Z" clip-rule="evenodd" fill="#fff" fill-rule="evenodd"/><path d="M86.5294,30.3181c0,0-.0759-.654-.4754-1.7411-.3996-1.087-.6886-1.4575-.6886-1.4575s2.7567-1.7389,6.9408-1.7389c5.288,0,6.3393,2.3706,6.3393,6.0447v10.3872c0,3.7757.7902,4.2523.7902,4.2523s-.7801-.1217-2.0547-.1217-2.3181.1217-2.3181.1217-.0915-1.5871-.0915-2.5815v-1.3315c0,0-1.1842,4.0458-5.2098,4.0458-4.0246,0-5.0067-3.2523-5.0067-6.1496c0-2.1707.3571-6.8727,7.8315-6.8727c1.7645,0,2.2946.1138,2.2946.1138v-1.4475c0-.9375.0335-3.4922-3.0513-3.4922-3.3907,0-5.3003,1.9687-5.3003,1.9687ZM92.4413,35.49h2.5167c0,0,.5391,7.4353-3.7478,7.4353-1.202,0-2.7075-.6641-2.7075-3.5146c0-3.5234,2.837-3.9207,3.9386-3.9207Z" clip-rule="evenodd" fill="#fff" fill-rule="evenodd"/><path d="M61.3273,24.6596v17.4007c0,2.1194-.4431,3.2868-.4431,3.2868s2.1261.9364,5.4431.9364c6.644,0,9.6239-4.3973,9.6239-12.0614c0-1.6774-.0503-8.8415-5.7701-8.8415-3.9933,0-5.125,4.4643-5.125,4.4643v-2.6395c0-2.0826.3125-9.2623.3125-9.2623s-.9208.5581-2.6161,1.0089-2.9029.4733-2.9029.4733s1.4777.2667,1.4777,5.2343Zm3.8181,13.1429c0,2.3582.1026,5.8862.1026,5.8862s1.2634.202,1.769.202c4.5369,0,4.9576-5.2445,4.9576-7.8259s-.2254-7.1619-3.2991-7.1619c-3.7165,0-3.5301,6.5413-3.5301,8.8996Z" clip-rule="evenodd" fill="#fff" fill-rule="evenodd"/><path d="M59.8852,42.3315c0,0-.2322.9978-.3248,1.9264-.0926.9296-.0502,1.4709-.0502,1.4709s-1.2456.5525-4.4007.5525c-9.8348,0-9.1317-9.4531-9.1317-10.7824c0-1.3292-.0915-10.1183,7.4654-10.1183c6.0179,0,6.5056,5.1384,6.5056,8.4319c0,2.182-.0625,2.4911-.0625,2.4911h-9.8806c0,0-.7076,7.1362,5.779,7.1362c2.7456,0,4.1005-1.1083,4.1005-1.1083Zm-9.9744-8.6317h6.317c0,0,.6696-5.8449-3.0078-5.8449-3.7087,0-3.3092,5.8449-3.3092,5.8449Z" clip-rule="evenodd" fill="#fff" fill-rule="evenodd"/><path d="M44.6332,17.9431c0,0-.4285,3.2043-.4285,8.1105v11.9353c0,6.7756.9899,8.0759.9899,8.0759s-1.1674-.1049-2.0234-.1049c-.8572,0-2.5603.1049-2.5603.1049l-.0848-3.1965c0,0-.6775,3.3594-4.4565,3.3594s-6.3382-3.5714-6.3382-10.7143c0-3.3035.6161-10.1328,7.8862-10.1328c1.7701,0,2.9643.548,2.9643.548v-3.4431c0-2.5881-1.0112-3.0602-1.0112-3.0602s1.5916-.1998,3.0123-.6116c1.4197-.413,2.0502-.8706,2.0502-.8706ZM40.4625,28.798c0,0-1.0581-.6864-2.4107-.6864-4.2378,0-4.3739,4.7266-4.3739,6.8795s.2198,7.8672,3.8582,7.8672c2.8326,0,2.9398-2.7243,2.9398-6.6172l-.0134-7.4431Z" clip-rule="evenodd" fill="#fff" fill-rule="evenodd"/><path d="M19.258,29.6954c0,0,.125-.1418.125-.5447s-.0067-.4587-.0625-.4587c-.057,0-.1429.0893-.1619.2243-.0123.0849-.0893.1853-.0893.2445s.1061.0759.1061.1584c0,.2043.0826.3762.0826.3762Z" clip-rule="evenodd" fill="#fff" fill-rule="evenodd"/><path d="M15.1172,32.9543c0,.0848.3337.1719.6361.2455.3025.0737.2456.0134.3382.0491s.125.0826.1987.0078c.0736-.0736.5234-.4308.4419-.4308-.0814,0-.202.1038-.4933.1038-.5156,0-.6796-.0245-.8236-.0245-.1451,0-.298.0212-.298.0491Z" clip-rule="evenodd" fill="#fff" fill-rule="evenodd"/><path d="M14.8426,48c0,0-.7756-.0122-1.2957-.0122s-.6764-.0313-.8058-.0313-.2634-.0111-.6027-.0859-.6451-.1864-.8661-.2545c-.2221-.0681-.8248-.2723-1.2332-.4029-.40963-.1306-1.50004-.5011-2.14401-.7745-.64621-.2735-1.61272-.7199-2.41741-1.3706-.8058-.6507-1.39621-1.1585-2.35045-2.3794s-1.4933-2.1217-1.87835-2.9822c-.383925-.8605-.78013-2.1317-.841514-3.4587-.017857-.3984-.06808-1.8783-.06808-2.9989c0-1.1216.024553-1.4866.00558-1.7667-.018973-.279-.03125-.7623-.03125-1.029s.100446-1.7824.100446-2.0704c0-.1093-.15625-.3526-.15625-.4029c0-.0491.606027-2.0011.780138-2.4787.17522-.4777.55134-1.24.63951-1.413.08705-.1741.1116-.3114.1116-.3114s.06808.2054.15514.2054.25334-.2456.36495-.4453c.11273-.1998.24331-.4967.31027-.7199.06808-.2232.16964-.3895.21763-.5201.04911-.1306.16183-.2433.21652-.3672.05581-.1227.07366-.1607.14286-.1607.06808,0,.07366-.0435.17299-.3772.10045-.3348.23772-.452.31138-.5826.07255-.1317.42746-.423.61273-.5659.18638-.1417.50781-.4274.6875-.5502.17968-.1239.59263-.5201.80468-.7377.21206-.2165.26786-.3047.26786-.3047s.03125.077.03125.1563c0,.0803.00447.1662.11049.0546.10603-.1104.42857-.3962.65179-.5569s.5904-.4654.92411-.6261.77901-.3594,1.25111-.5324c.47098-.1741,1.03348-.3671,1.33818-.5279.3036-.1607.6942-.3158.6942-.3158s-.2958.298-.0424.2422.9899-.317,1.3069-.317c.1741,0,.2991-.019.2991-.019s-.2801.1675-.4219.2422c-.1428.0748-.279.1797-.279.1797s.596-.1417.7255-.1417.193.1797.452.1797c.26,0,.6015-.0692.6015-.0692s-.212.1004-.3102.1004-.1373.0558-.2422.0614c-.1049.0067-.1049.087.0502.0926.154.0067.577.019.7321.019.3337,0,.365-.2612.6552-.2612.1618,0,.8314.2422.8314.2422l-.0982-.3337c0,0,1.0413.4096,1.4007.4654.3583.0547.5335.1105.8672.2779.3348.1663,1.0402.5335,1.0402.5335s.2935.019.3794-.0123c.086-.0312.1362-.2109.3092-.2109.1741,0,.7623.192.7623.3404s.0301.2187.1105.2667c.0814.0491.8136.5201.8136.5201s.0982-.0614-.0246-.1551c-.1239-.0926-.4219-.433-.4219-.433s.49.3147.6942.4084c.2054.0938.769.4766,1.1284.7244.3594.2489.8538.7064,1.1763,1.048.3237.3415.9866,1.1462,1.2656,1.8783s.6262,1.8036.6262,1.8036-.3784-.6875-.4286-.6752c-.0491.0134.1987.9118.2422,1.0357s0,.1239-.0435.1417c-.0436.019-.0871.0491-.0123.1551.0748.1061.2868.7746.366,1.0603.0804.2857.2724,1.24.2724,1.24s-.1842-.6116-.2779-1.0157c-.0938-.404-.2668-.8816-.3918-1.2031-.1919-.4966-.6495-1.154-.6495-1.154s-.0514.3661-.1563.3661-.414-.4029-.5134-.4029c-.1004,0-.0145.1785.0982.6506.1128.471.3661.8259.336.5402-.0313-.2857-.086-.4966.0301-.2924.1183.2043.2534.4643.2534.5514s.0067.4107.0569.5279c.0491.1171.2411.8191.2042.8616-.0379.0424-.1239-.038-.1864-.2043-.0613-.1674-.1294-.298-.1663-.298-.0379,0-.1439-.0122-.0435.3103.0994.3214.1842.6127.3103.7433s.1741.1172.1261.1696-.0357.0525-.0703.009c-.0346-.0436-.1038-.0525-.1038.2522s.0692.9788.1473.9788c.0793,0,.1351-.2042.2489-.2042.1127,0,.0435.0223-.0179.2868-.0613.2656-.1517.3136-.2176.4922-.0647.1785-.2132.2779-.2132.6172c0,.3404.1005.6015.1005.6015s-.1139-.2053-.1484-.3482c-.0346-.144-.105-.1484-.105-.2098c0-.1205-.048-.077-.048.0569c0,.2221-.0256.2221-.0256.2612c0,.039.0703-.0056.0703.0915c0,.096.0346.0569.0346.1529c0,.0949,0,.2042,0,.2388s-.1049-.1261-.1049-.2477.0178-.2567-.0525-.1786c-.0692.0781-.0993.1518-.0993.1518s0,.3314,0,.5792-.0569.6272-.2176.8493c-.1619.221-.2746.3382-.3304.4387-.0569.1004-.3248.3839-.3404.6093-.0212.3047,0,.5748,0,.5748l-.317-.4743c0,0-.2444.3136-.3705.5268-.1261.212-.2132.356-.2132.404s.0045.048.0692.048c.0659,0,.2444-.0915.2444,0s-.3392.7533-.3392.6573c0-.0346.173-.2388.087-.2388-.087,0-.1618.0424-.1183-.0357s.2098-.2824.2098-.2824-.193.048-.366.2221c-.1741.1741-.2779.3192-.3706.4119-.0937.0926-.106.106-.2109.1986-.106.0926-.3203.2589-.4509.3761-.1306.1195-.7768.5826-1.135.8516-.3583.2679-1.115.817-1.9208.9966-.8058.1786-1.1763.1887-1.4342.1887-.26,0-1.0011-.0157-2.4933-.5369-.7388-.2578-.9118-.318-.9118-.3393s.038-.0078.038-.0279-.1451-.1194-.3795-.3035c-.2344-.1842-.8493-.6708-1.0257-.8047s-.6183-.4944-.7477-.596c-.1284-.1027-.6831-.6395-.6831-.6395l.1127.3571c0,0-.0401-.0245-.1261-.1919-.0859-.1674-.3136-.5681-.4263-.7802-.11386-.2131-.3806-.6551-.3806-1.1752c0-1.269.17634-2.2299.17634-2.6529c0-.1272.03572-.1886.15736-.2991s.1853-.2455.2377-.5469c.0525-.3013.1384-.8515.3148-1.0535.2265-.2601.539-.4141.5837-.5134.0435-.1005.3928-.7746.5145-.8962.1205-.1217.2678-.2925.3895-.3862.1216-.0949.2232-.1451.375-.2545.1529-.1105.4899-.2656.7165-.3571s1.1138-.1685,1.3571-.1685.9509,0,1.1686,0c.2187,0,.75.0859,1.1283.3125.3795.2265.6328.4609.7846.5971.1529.135.3851.4196.4732.5245s.2679.3293.2679.3293-.2545-.2021-.4721-.384c-.2188-.183-.5926-.4955-.9185-.6473s-.9219-.3114-1.3784-.3114-.8906.0715-1.2745.2366c-.384.1663-.8985.3739-1.4041.6474-.5067.2734-.8761.4754-1.1774.76s-.7355.9152-.8817,1.3817c-.1473.4676-.1942.6942-.1942.8761c0,.183,0,.4543,0,.6116s.0257.1987.0257.365c0,.1652,0,.298,0,.4029s.0301.0669.0413.0111c.0111-.0547.0826-.0078.0826-.0602s.058-.2333.058-.0279c0,.2042.0368,1.5613.1953,2.3404.1585.7779.6462,1.6361,1.5112,2.2957.8638.6596,1.9263,1.1217,2.6384,1.1217.904,0,2.6462-.7723,2.6462-.7723s.0145.0792.0747.0792c.0614,0,.2623-.067.5625-.1663s.4286-.115.4956-.2433c.0669-.1272.0223-.1339.1116-.2232.0904-.0893.5435-.4799.5848-.4699.0424.0089-.0089.1083-.1462.2143-.1373.1049-.3259.2232-.106.2232.3259,0,.962-.6194,1.3906-1.0134.4286-.3928.5971-.5491.7065-.616.1082-.067.1372-.1697.1752-.2757.0391-.1049.096-.2556.0413-.2556-.0536,0-.1786.0067-.1306-.1049s.2277-.5435.2846-.5435.1406-.0291.1786-.086c.039-.058.2846-.0547.2846-.1986c0-.144.1886-.4978.3035-.7668.115-.2689.1608-.3705.1608-.4631c0-.0927,0-.7166,0-.7166l-.307.7445c0,0,.3248-1.0291.3248-1.5971c0-.3103-.0949-1.0067-.0949-1.3237c0-.3158.0257-.4342.0257-.6004s.0089-.2556-.0323-.2556-.0737-.0223-.0737-.1094c0-.0859-.0926-1.0603-.1183-1.2746s-.1786-1.1383-.4085-1.5725c-.1417-.2679-.2589-.5179-.6585-1.0926-.3995-.5759-.6529-.8695-1.106-1.2791-.4542-.4084-.6685-.5848-1.3717-.9743-.702-.3895-1.2968-.6774-1.6194-.8091-.3236-.1306-1.0803-.4253-1.5-.5012-.4185-.077-1.2076-.1629-1.7544-.1629-.5458,0-.9967.0703-1.182.1339s-.2142.096-.2589.096c-.0826,0-.01.086-.077.086-.0815,0-.2199.0357-.3895.0926-.1696.058-.3259.144-.3259.144s-.0513-.0603.3002-.1697c.2668-.0815.4186-.1116.4186-.1495c0-.0391-.0771-.0324-.115-.0324s-.5078.0614-.9364.1127c-.4286.0502-.8315.1596-.8315.3259c0,.1652-.0725.2813-.5301.4442-.45647.163-.81808.2042-.87611.2578-.05692.0547-.1596.2177-.1596.2177s.10156.0055.48549-.1373c.48992-.1819.55022-.2746.55022-.211s-.5558.4543-1.12165.4543c-.2779,0-.44754-.0547-.57589-.0547-.12723,0-.26116.077-.72879.4989-.46652.4219-.6038.5881-.6038.5881s.04464.0704.12835.0704c.08259,0,.31027-.202.37723-.2913s.19866-.1485.01563.048c-.31027.3325-.26563.3616-.3192.3616-.05469,0-.15402,0-.32254,0-.16965,0-.8538.0279-1.62724.8236s-1.43192,1.4933-1.7991,2.0424c-.36831.5503-.38728.6328-.47322.7255s-.1116.1027-.1116.1027l.33147.0256c0,0-.22322.5469-.40179.9643-.17968.4197-.32031.4699-.47321.7489-.15402.2779-.2913.6071-.32924,1.1886s-.13728,1.3739-.18862,1.7835c-.05134.4085-.17299,1.058-.22098,1.4732s-.05692.6451-.05692.8973c0,.2534.05357.6585.30022,1.0268.24554.3672.29688.4308.29688.5078s-.0346.1474-.0346.3482c0,.2021-.02567.4599-.02567.4599s.11607.0948.1596.2689c.04464.1786.18192.3449.18192.3449h-.19531c0,0,.60491,1.8761.75111,1.8761.14732,0,.21429-.8627.38728-.8627.09263,0,.17299.1696.26227.3426.08929.1719.29465.6228.40291.8851.24553.5971.36384.7321.29352.7254s-.32924-.0993-.4375-.2689c-.10937-.1686-.125-.2266-.125-.0313c0,.1942.06362.1886.06362.2779s.10603.1451.20201.3571c.11161.25.2846.4733.38058.605.09486.1305.19754.2009.14286.2611-.05358.0614-.08594.0614-.08594.1027s-.08259.0391-.07924.0859c.00223.048.18527.3683.35156.4866.16518.1183.31585.2266.31585.2266s-.35826-.1596-.39956-.1596-.16629-.019-.08593.1183c.07924.1373.82477,1.096,1.03236,1.3516s.51451.7154.51451.7154l.16295-.2712c0,0,0,.2812,0,.3482s.25558.4765.29018.5368c.03571.0614.05803.096.09933.1473.04129.0514.10826.1083.15067.1663.04129.057.12053.1596.17857.2333s.05469.1373.16629.1373.13393-.0324.26898-.0324c.13393,0,.13058-.0033.16294.0837.03125.0859.14174.2835.29353.4063.03237.0256.09933.1272.14732.1629.04799.0346.09822.0636.13058.1083s.13393.1183.13393.1183.06473.0346.125.0703c.06138.0346.16295.1149.23661.1149s.21428-.0134.15625.0581c-.05692.0703-.28014.3158-.22991.3292.05134.0123.78683.2333.78683.3159c0,.0479-.05134.0223-.05134.1116s.2846.1506.40513.2109c.12166.0614.68416.2969.60826.2109-.077-.0859-.2344-.3895-.2243-.4118.01-.0234.3448.3638.4352.4085.0893.0446.1462.1663.2266.2723.0792.1049.2266.3226.4408.4531.2143.1317.4599.3237,1.6206.6808.2868.0893.5524.0168.8337.0704.2824.0546,1.01.2488,1.01.2488Z" clip-rule="evenodd" fill="#fff" fill-rule="evenodd"/><path d="M17.7354,32.0759c0-.0491.0256-.048.0256-.1038s.1987-.2991.3873-.5257c.1875-.2277.327-.4219.327-.4219s-.087.3349-.2299.5101c-.1429.1741-.4118.5346-.3962.5446.0167.0101.1529-.0513.3437-.1529.192-.1004.2333-.1172.3895-.3404.2155-.3058.3382-.7411.3382-.7411s-.1294.6764-.3181.9387c-.1886.2634-.1752.1919-.2343.3058-.0581.1138-.0971.1596-.0837.0614.0134-.0971-.0268-.1686-.1005-.1686-.1685,0-.3571.2076-.3571.1529c0-.0948-.0915-.01-.0915-.0591Z" clip-rule="evenodd" fill="#fff" fill-rule="evenodd"/><path d="M24.5022,30.3839c-.0335,0-.0179.0491-.0179.1116s-.2131.7802-.2265.8281c-.0123.0492.0033.1083.0669-.0747.0625-.1831.2154-.6451.2154-.7724c0-.0625-.0033-.0926-.0379-.0926Z" clip-rule="evenodd" fill="#fff" fill-rule="evenodd"/><path d="M25.0667,30.4542c-.0447,0-.0804.1886-.1272.5212-.0469.3337-.0815.5369-.1451.7601-.0637.2221-.1797.6116-.2623.8192-.0826.2087-.5145,1.0926-.5145,1.0926s.2433-.3661.4341-.7734c.1898-.4074.2913-.7277.346-.9163.0558-.1886.1529-.6228.1708-.7768.0178-.1551.0647-.4755.0937-.596.0279-.1205.0502-.1306.0045-.1306Z" clip-rule="evenodd" fill="#fff" fill-rule="evenodd"/><path d="M0.046875,26.4097c0,0,.18192-.3248.231027-.6898.049107-.3649.098214-.4732.098214-.4732s-.376116.4308-.376116.5647c0,.2121.089286.134.089286.2712c0,.2512-.042411.3271-.042411.3271Z" clip-rule="evenodd" fill="#fff" fill-rule="evenodd"/><path d="M0.607422,23.76c0,.038.103794.0034.183036-.0658s.120535-.1217.100446-.1384c-.018973-.0168-.026786-.029-.061384.0123-.034598.0424-.151786.1294-.177455.1428-.02567.0123-.044643.0112-.044643.0491Z" clip-rule="evenodd" fill="#a80030" fill-rule="evenodd"/><path d="M0.883789,23.5202c.011161.0089.094866-.0458.158481-.0848.06473-.0402.0971-.1239.13728-.2433s.15513-.3215.15067-.3851c-.00335-.0636-.09152.0011-.11607.0324-.02567.0312-.09487.0614-.12277.1027-.02679.0424-.123886.1038-.123886.0491s-.045758-.0871,0,.0982c.02009.0803-.025669.1785-.025669.26c0,.1239-.058036.1708-.058036.1708Z" clip-rule="evenodd" fill="#fff" fill-rule="evenodd"/><path d="M9.67983,33.6105l-.11831.3917c0,0,.17188.2054.3259.4431.15518.2377.27348.4475.32138.5089s.2255.2288.2824.2824.1429.1205.1429.1205-.1607-.3381-.2378-.4698-.1796-.2746-.3337-.5101c-.2667-.404-.38277-.7667-.38277-.7667Z" clip-rule="evenodd" fill="#fff" fill-rule="evenodd"/><path d="M10.3193,34.2042c0,0,.2567.3806.3505.5257.0926.144.4062.6283.596.8683.1897.2388.4631.5435.7009.721.2377.1786.952.6094,1.1674.7131.2143.105.5491.2355.8917.3594.3415.125.5513.1998.7031.2322.1507.0312.5849.0669.682.0669.9073,0,1.904-.4386,1.904-.4386s-.692.0235-1.0168.0235-1.1183-.038-1.7131-.269c-.5927-.2322-.6898-.3002-.7947-.3683-.1038-.0681-.51-.3471-.51-.4308c0-.0826.0379-.0826.0379-.0826s-.0781-.0246-.0781.0859c0,.0748.0234.0982.0234.0982s-.0725.019-.5357-.2433c-.9431-.5312-1.4587-1.2712-1.4587-1.2712s.0625.2456.3985.6194c.3359.375.625.586.625.586s-.4398-.1864-.567-.2913c-.1284-.1038-.433-.4487-.5737-.6395-.1417-.192-.2734-.3583-.3125-.423-.0402-.0647-.0837-.1172-.1205-.1641-.1775-.231-.3996-.2779-.3996-.2779Z" clip-rule="evenodd" fill="#fff" fill-rule="evenodd"/><path d="M13.4717,16.4253c0,0,.1886-.0134.4341-.0134.2456,0,.5614.0212.3907.0669-.1697.0458-.2925.0994-.2925.0994s-.1406.039-.1406-.0034.144.0491.144-.0424c0-.0647-.5357-.1071-.5357-.1071Z" clip-rule="evenodd" fill="#fff" fill-rule="evenodd"/><path d="M13.3369,16.1195c0,.0245.1596-.0067.1596.0212c0,.029.0346.0145.1194-.0067.086-.0212.4933-.096.3494-.0926-.1451.0033-.2757.039-.3806.0424-.106.0033-.2478.0111-.2478.0357Z" clip-rule="evenodd" fill="#fff" fill-rule="evenodd"/><path d="M14.1662,16.0346c.0491.0134.3282.0313.336.0134.0067-.0178.2422-.0212.1015-.0424-.1406-.0212-.096.0212-.2399.0179-.1451-.0034-.2478-.0034-.1976.0111Z" clip-rule="evenodd" fill="#fff" fill-rule="evenodd"/></g></svg>
